<?xml version="1.0" standalone="no"?>
<!DOCTYPE svg PUBLIC "-//W3C//DTD SVG 20010904//EN"
 "http://www.w3.org/TR/2001/REC-SVG-20010904/DTD/svg10.dtd">
<svg version="1.0" xmlns="http://www.w3.org/2000/svg"
 width="1081.000000pt" height="1081.000000pt" viewBox="0 0 1081.000000 1081.000000"
 preserveAspectRatio="xMidYMid meet">
<metadata>
Created by potrace 1.11, written by Peter Selinger 2001-2013
</metadata>
<g transform="translate(0.000000,1081.000000) scale(0.100000,-0.100000)"
fill="#000000" stroke="none">
<path d="M6205 10577 c-11 -47 -45 -233 -45 -248 0 -20 16 -27 84 -35 51 -6
52 -6 68 27 28 58 49 152 46 203 -4 55 -6 56 -100 69 -44 6 -48 5 -53 -16z"/>
<path d="M4590 10488 l-43 -93 17 -80 c9 -44 19 -90 22 -102 5 -17 2 -23 -10
-23 -28 0 -29 -25 -6 -130 12 -56 19 -104 16 -107 -3 -4 -6 -1 -6 6 0 24 -88
149 -126 177 -30 24 -47 29 -90 29 -45 0 -57 -4 -83 -29 -38 -37 -51 -80 -51
-174 0 -88 20 -193 65 -332 33 -100 41 -145 15 -78 -31 79 -146 298 -186 354
-51 73 -93 110 -153 137 -38 16 -50 18 -83 8 -131 -40 -106 -270 66 -613 86
-171 167 -297 247 -383 69 -74 102 -90 163 -81 41 7 44 9 56 51 16 56 7 157
-22 247 l-21 67 -49 11 c-86 18 -87 16 -67 -64 6 -24 9 -54 7 -66 l-3 -23 -30
25 c-16 14 -45 51 -64 83 l-34 56 19 25 c12 16 45 35 89 50 76 27 81 30 87 58
2 12 22 -25 52 -93 62 -142 132 -256 191 -310 44 -41 50 -43 93 -38 79 9 85
24 80 202 -3 99 -10 164 -20 190 -13 36 -21 42 -69 56 -30 10 -58 14 -62 9 -5
-4 -4 -34 2 -66 36 -195 -34 -168 -110 43 -11 32 -26 74 -34 93 -15 40 -27 86
-50 182 -14 61 -14 70 0 97 8 16 19 32 24 35 12 8 37 -23 61 -77 12 -26 24
-47 28 -47 4 0 18 9 32 20 14 11 32 20 41 20 21 0 29 29 22 79 -5 33 -2 39 16
44 11 3 21 2 21 -1 0 -10 97 -433 131 -571 34 -140 68 -221 106 -251 31 -24
45 -25 83 -5 25 13 30 22 30 50 0 39 17 48 22 13 2 -13 9 -23 16 -22 6 1 26 2
43 3 37 1 38 -32 -10 326 -39 284 -46 474 -19 501 16 16 19 16 42 1 14 -10 28
-17 31 -17 3 0 5 56 5 124 0 123 0 125 -26 145 -54 43 -88 17 -108 -80 l-13
-64 -6 40 c-4 22 -7 53 -7 69 0 29 0 29 -51 23 -29 -4 -53 -8 -54 -9 -2 -2 5
-55 15 -118 10 -63 34 -218 54 -345 20 -126 41 -257 46 -290 5 -33 10 -71 11
-85 5 -88 -12 -109 -27 -32 -7 37 -13 47 -29 47 -11 0 -24 6 -29 14 -9 14 -30
107 -41 181 -7 47 -33 170 -52 246 -13 56 -13 64 3 97 10 20 21 37 25 37 17 0
17 38 -1 119 -28 128 -34 141 -67 141 -31 0 -53 34 -53 79 0 48 -62 281 -75
281 -7 0 -31 -42 -55 -92z m-496 -782 c20 -33 36 -64 36 -68 0 -9 -27 -21 -72
-32 -23 -5 -29 -1 -43 26 -26 52 -31 130 -10 152 17 17 19 17 36 -1 10 -10 34
-45 53 -77z"/>
<path d="M3372 10288 c-42 -17 -52 -25 -49 -39 4 -16 295 -542 603 -1089 47
-85 98 -176 113 -202 14 -26 33 -48 41 -48 30 0 90 21 90 32 0 14 -231 468
-247 486 -7 7 -13 17 -13 21 0 5 -19 44 -43 87 -24 44 -83 156 -132 249 -249
481 -274 525 -293 524 -9 0 -41 -10 -70 -21z"/>
<path d="M5285 10217 c-66 -65 -86 -141 -92 -344 -12 -371 86 -733 199 -733
40 0 71 40 101 128 49 143 61 237 62 477 0 200 -2 227 -23 298 -29 102 -53
147 -97 185 -53 47 -95 44 -150 -11z m106 -200 c51 -39 74 -161 67 -368 -4
-114 -10 -168 -24 -208 -49 -142 -110 -58 -135 183 -12 120 -7 270 12 326 11
33 46 80 58 80 3 0 13 -6 22 -13z"/>
<path d="M5650 10225 c-11 -26 -64 -1049 -56 -1070 4 -11 20 -15 54 -15 63 0
70 14 76 150 5 121 30 392 45 495 18 118 48 194 78 195 17 0 26 -61 19 -128
-4 -31 -25 -205 -47 -385 -23 -180 -39 -331 -35 -334 3 -3 26 -9 51 -13 43 -7
46 -5 65 25 11 18 20 46 20 62 0 16 4 54 9 84 13 71 40 245 45 289 3 19 12 82
21 140 8 58 20 137 26 175 38 253 -74 433 -200 319 l-40 -35 -3 28 c-3 26 -6
28 -62 33 -52 5 -59 3 -66 -15z"/>
<path d="M6135 10190 c-2 -3 -47 -238 -100 -521 -52 -283 -97 -522 -99 -531
-5 -23 11 -34 61 -43 l42 -7 20 46 c12 25 21 54 21 65 0 11 5 32 11 48 6 15
15 51 19 78 13 74 28 143 44 205 8 30 20 82 26 115 6 33 16 80 22 105 5 25 14
68 18 95 5 28 16 82 25 120 20 84 30 194 18 206 -11 11 -122 28 -128 19z"/>
<path d="M6464 10132 c-110 -52 -207 -247 -278 -562 -36 -160 -53 -350 -38
-430 19 -106 55 -135 133 -110 40 14 99 59 99 77 0 5 11 23 25 39 14 16 28 40
32 54 3 14 12 31 20 38 7 7 13 22 13 32 0 10 4 20 8 22 5 2 12 24 15 49 6 43
4 48 -33 84 -21 21 -45 35 -52 33 -7 -3 -19 -23 -27 -44 -18 -52 -59 -124 -71
-124 -16 0 -11 146 6 203 8 29 22 77 31 107 55 198 104 289 144 264 11 -6 8
-61 -7 -120 l-7 -27 62 7 c34 4 68 9 76 12 26 10 49 96 50 184 0 71 -4 93 -25
134 -42 85 -103 111 -176 78z"/>
<path d="M7612 10059 c-92 -50 -92 -50 -144 -139 -47 -81 -54 -88 -78 -84 -23
5 -30 -3 -82 -95 -32 -55 -58 -106 -58 -112 0 -7 7 -17 15 -23 12 -9 -12 -57
-146 -286 -185 -317 -227 -400 -235 -462 -5 -39 -3 -49 16 -68 19 -19 30 -21
65 -17 32 5 45 3 49 -8 3 -8 23 -23 44 -34 39 -20 40 -20 57 -1 10 11 23 20
29 20 6 0 27 24 46 53 19 28 40 57 45 64 6 7 15 18 21 25 5 7 19 28 30 47 10
19 31 47 47 63 15 16 27 33 27 39 0 5 14 24 30 42 17 18 36 44 43 60 6 15 14
27 17 27 3 0 23 25 45 55 22 30 43 55 48 55 4 0 7 5 7 10 0 10 36 50 45 50 3
0 15 9 27 20 12 11 25 20 30 20 4 0 8 -9 8 -20 0 -21 33 -29 44 -11 3 5 22 19
42 30 l36 22 -36 -51 c-20 -28 -104 -136 -185 -240 -82 -104 -169 -217 -194
-252 -126 -177 -146 -303 -48 -297 29 2 43 -4 74 -34 21 -21 43 -37 49 -37 5
0 24 10 41 22 45 32 207 194 207 207 0 6 4 11 9 11 11 0 101 90 101 101 0 5 7
9 15 9 8 0 15 4 15 8 0 4 26 35 58 69 31 33 93 100 137 148 44 47 108 116 143
151 56 58 82 97 82 124 0 5 -24 25 -52 45 l-53 36 -30 -34 c-432 -477 -512
-561 -557 -592 -29 -19 -56 -35 -59 -35 -3 0 -4 11 -1 25 2 14 8 25 12 25 4 0
10 8 14 18 8 24 27 52 52 76 12 12 38 44 59 71 21 28 42 52 47 53 4 2 8 10 8
18 0 8 7 14 15 14 8 0 15 5 15 11 0 7 10 21 23 33 12 12 38 42 56 66 33 42 54
68 91 109 8 9 31 37 50 61 19 25 44 55 57 67 13 12 23 36 25 58 3 35 0 40 -46
68 -39 24 -52 28 -66 19 -20 -12 -30 1 -30 38 0 10 -12 28 -27 40 -26 20 -43
21 -87 4 -12 -5 -15 -2 -10 9 4 12 -9 23 -46 42 -29 15 -58 24 -65 22 -7 -3
-117 -162 -245 -354 -283 -424 -276 -414 -271 -361 1 9 -3 19 -8 22 -11 7 28
86 75 155 13 20 24 41 24 47 0 7 4 14 8 16 5 2 26 31 48 66 21 35 47 75 57 90
9 15 20 35 23 45 4 9 10 17 15 17 5 0 9 6 9 14 0 21 48 56 76 56 26 0 94 62
94 85 0 8 4 15 10 15 5 0 12 11 16 25 3 14 10 25 15 25 5 0 9 18 9 40 0 22 -4
40 -10 40 -16 0 -12 46 5 60 8 7 15 17 15 22 0 6 12 29 28 52 15 22 32 52 39
66 24 50 63 143 63 151 0 19 -39 6 -128 -42z"/>
<path d="M7042 9933 c-77 -38 -158 -160 -212 -320 -43 -130 -41 -182 11 -287
47 -93 47 -104 0 -178 -69 -108 -141 -54 -96 72 8 24 13 45 10 48 -3 3 -26 1
-53 -4 l-47 -9 -22 -85 c-44 -171 -25 -270 53 -270 49 0 83 20 142 84 113 124
202 296 209 405 5 63 3 70 -42 155 -51 97 -54 129 -14 180 16 20 29 26 60 26
33 0 40 -4 45 -25 3 -14 3 -45 0 -70 l-7 -45 55 0 54 0 16 43 c54 150 48 226
-23 274 -40 27 -92 29 -139 6z"/>
<path d="M3251 9806 c-95 -53 -54 -237 108 -482 136 -208 316 -412 425 -485
55 -37 66 -40 108 -36 26 2 54 10 63 17 35 29 11 159 -53 290 -27 55 -27 55
-85 64 -36 6 -61 6 -67 0 -6 -6 0 -32 15 -69 45 -109 29 -112 -67 -16 -53 52
-67 72 -61 87 10 26 35 54 49 54 16 0 73 30 98 53 24 20 25 18 -79 177 -183
282 -346 406 -454 346z m245 -278 c23 -24 50 -57 62 -74 l21 -31 -50 -21 -50
-20 -14 21 c-48 74 -61 139 -31 159 17 12 19 11 62 -34z"/>
<path d="M2100 9574 c-25 -20 -46 -41 -48 -47 -2 -11 56 -68 180 -176 35 -30
38 -31 76 -19 28 9 45 22 58 46 l18 33 -105 99 c-57 54 -111 99 -119 99 -8 0
-35 -16 -60 -35z"/>
<path d="M2723 9509 c-17 -5 -43 -24 -58 -41 -24 -28 -27 -39 -23 -84 9 -112
102 -249 308 -454 151 -151 310 -277 415 -327 74 -35 115 -41 158 -20 24 11
27 18 27 60 0 57 -51 167 -133 286 l-51 73 -59 -5 c-33 -3 -63 -9 -67 -14 -5
-4 14 -41 41 -81 42 -64 61 -112 44 -112 -47 0 -314 245 -403 368 -39 55 -44
68 -36 90 14 40 36 37 96 -12 l55 -45 32 33 c47 49 43 81 -22 137 -145 127
-242 171 -324 148z"/>
<path d="M2423 9274 c-24 -20 -43 -42 -43 -49 0 -7 73 -77 162 -156 90 -79
284 -253 432 -386 148 -134 274 -243 280 -243 25 0 77 41 74 59 -3 15 -181
188 -737 714 -57 53 -108 97 -114 97 -7 0 -31 -16 -54 -36z"/>
<path d="M8305 9197 c-122 -46 -259 -151 -442 -338 -195 -198 -313 -373 -313
-462 0 -31 41 -68 76 -69 74 -2 131 17 254 83 61 33 139 96 144 115 6 21 -19
110 -33 118 -4 3 -30 -11 -57 -30 -27 -20 -66 -45 -87 -55 l-39 -20 7 23 c12
41 51 91 142 183 117 118 180 175 192 175 5 0 14 6 18 14 4 8 32 26 61 41 86
43 92 13 16 -82 -19 -23 -34 -46 -34 -51 0 -5 30 -17 66 -27 65 -17 66 -17 94
4 30 22 70 28 70 11 0 -10 -154 -138 -354 -293 -145 -113 -290 -247 -312 -289
-22 -42 -18 -75 11 -94 35 -23 105 -14 149 20 19 14 39 26 44 26 6 0 12 7 16
15 3 8 11 15 17 15 6 0 -9 -22 -34 -48 -44 -48 -68 -85 -81 -129 -11 -34 24
-63 77 -63 27 0 37 -3 28 -9 -16 -10 -9 -36 19 -70 l20 -24 58 18 c48 15 100
43 122 65 3 3 20 13 38 23 17 9 47 25 65 35 17 9 34 20 35 25 2 4 9 7 14 7 6
0 44 20 84 45 39 25 76 45 82 45 6 0 12 3 14 8 2 4 18 15 36 25 17 9 47 25 65
35 17 9 34 20 35 25 2 4 10 7 17 7 8 0 20 6 27 13 14 12 28 20 134 78 28 15
68 39 89 53 21 14 43 26 49 26 6 0 31 18 55 38 50 44 50 55 -3 116 l-33 39
-314 -194 c-376 -230 -519 -305 -519 -270 0 24 159 157 220 185 14 6 39 23 55
38 17 16 36 28 43 28 6 0 12 5 12 10 0 6 5 10 10 10 12 0 73 41 78 53 2 4 10
7 18 7 8 0 14 4 14 9 0 5 10 13 22 17 12 3 33 17 47 30 14 13 29 24 33 24 11
0 139 89 172 121 l30 28 -41 48 c-22 26 -47 48 -56 48 -15 0 -337 -224 -674
-467 -74 -54 -137 -98 -141 -98 -4 0 -2 4 3 8 16 12 35 50 35 71 0 19 75 101
92 101 4 0 21 14 38 30 17 17 34 30 38 30 4 0 22 14 40 30 18 17 37 30 43 30
5 0 9 5 9 10 0 6 6 10 14 10 8 0 16 7 20 15 3 8 11 15 19 15 7 0 32 18 55 39
23 22 51 43 62 46 11 4 20 10 20 15 0 14 41 19 60 8 10 -7 25 -8 36 -3 11 4
25 9 31 11 19 3 115 74 141 103 18 20 22 33 18 57 -6 27 -1 36 37 70 24 21 55
45 69 53 34 17 178 155 178 170 0 14 -23 14 -148 -4 l-102 -15 -87 -69 c-81
-66 -88 -69 -105 -54 -16 15 -22 12 -84 -36 -70 -54 -88 -59 -60 -17 9 14 23
45 31 70 14 41 14 48 -2 92 -10 26 -30 56 -45 67 -40 30 -111 32 -183 4z"/>
<path d="M2270 9180 c-23 -23 -24 -37 -9 -76 10 -28 10 -28 -10 -10 -19 18
-21 17 -65 -19 -26 -21 -46 -43 -46 -50 0 -7 116 -102 258 -211 288 -222 554
-430 592 -463 14 -12 -10 1 -53 29 -99 65 -105 67 -115 40 -8 -21 -10 -21 -78
26 -65 44 -387 277 -428 308 -14 12 -17 21 -10 43 4 15 8 31 8 35 1 7 -128
106 -182 140 l-33 20 -23 -21 c-12 -11 -25 -21 -29 -21 -3 0 -79 52 -167 115
-89 63 -169 115 -177 115 -16 0 -16 -2 29 -128 32 -89 30 -86 189 -194 19 -13
22 -19 12 -29 -7 -7 -13 -17 -13 -21 0 -4 50 -41 111 -82 99 -66 114 -73 135
-64 22 10 53 -8 347 -205 340 -228 410 -268 479 -269 51 -1 82 30 76 74 -4 21
0 28 13 28 18 0 79 52 79 67 0 5 -88 81 -196 168 -238 193 -391 326 -422 365
-28 36 -25 64 6 68 34 5 27 29 -30 96 -110 129 -131 146 -182 146 -33 0 -52
-6 -66 -20z"/>
<path d="M1790 8661 c-106 -56 -24 -198 201 -347 53 -35 102 -64 107 -64 6 0
12 -3 14 -7 7 -16 298 -161 368 -183 14 -5 48 -17 76 -28 85 -32 193 -55 231
-49 67 11 91 56 57 107 -22 33 -130 144 -175 181 l-36 29 -47 -16 c-25 -9 -46
-19 -46 -22 0 -4 23 -26 50 -50 50 -43 64 -77 36 -88 -32 -12 -276 81 -276
105 0 10 31 51 92 118 21 24 38 47 38 52 0 13 -253 164 -348 208 -85 39 -207
73 -266 73 -23 0 -57 -8 -76 -19z m339 -161 c40 -17 85 -39 102 -49 l29 -18
-42 -51 c-23 -29 -47 -52 -53 -52 -18 0 -150 96 -174 126 -21 27 -27 55 -14
67 15 16 86 5 152 -23z"/>
<path d="M8620 8149 c-283 -155 -521 -287 -529 -295 -15 -14 -10 -32 24 -78
14 -18 15 -18 67 0 29 10 55 22 58 25 3 3 17 9 33 13 15 3 27 11 27 16 0 6 6
10 14 10 13 0 194 88 206 100 11 11 256 130 268 130 6 0 12 5 12 10 0 6 7 10
15 10 13 0 65 20 107 41 10 5 32 9 49 9 26 0 30 -3 24 -17 -20 -49 -19 -56 6
-49 13 4 48 10 77 13 28 3 52 9 52 14 0 5 6 9 14 9 7 0 35 9 62 21 97 40 94
38 94 90 0 52 -15 75 -56 85 -14 4 -24 13 -24 24 0 22 -56 100 -73 100 -6 0
-244 -127 -527 -281z"/>
<path d="M1540 8348 c-54 -37 -53 -91 1 -153 l31 -35 -61 0 c-127 0 -172 -64
-108 -154 l20 -28 -24 7 c-13 4 -29 10 -36 12 -16 6 -71 -104 -58 -116 12 -11
1156 -401 1177 -401 16 0 48 56 48 82 0 10 -105 54 -329 136 -367 136 -484
184 -521 211 -21 17 -23 22 -12 45 l11 25 53 -15 c29 -9 225 -85 435 -170 210
-85 389 -154 396 -154 21 0 45 32 49 64 l3 29 -335 147 c-457 199 -504 224
-498 264 7 49 33 40 536 -198 183 -87 339 -155 347 -152 14 5 55 63 55 78 0
12 -845 432 -930 463 -41 14 -106 29 -145 32 -62 4 -74 2 -105 -19z"/>
<path d="M9155 8086 c-261 -51 -742 -290 -883 -440 -47 -50 -53 -60 -50 -93 2
-26 11 -42 31 -57 25 -18 42 -21 130 -20 107 1 240 26 268 51 18 15 24 109 8
119 -5 3 -33 0 -63 -7 -77 -17 -88 -9 -45 32 20 19 43 39 50 44 22 16 88 45
102 45 7 0 33 -41 57 -90 l44 -90 36 6 c34 6 138 41 210 71 52 23 224 107 230
113 3 4 22 16 43 29 20 12 37 27 37 32 0 5 5 9 11 9 6 0 24 15 40 33 56 63 45
168 -21 202 -43 22 -151 27 -235 11z m13 -165 c23 -14 -33 -68 -115 -108 -73
-36 -76 -36 -89 -18 -8 10 -14 29 -14 41 0 25 43 64 69 64 10 0 21 4 27 9 5 5
27 11 49 14 22 2 45 4 50 5 6 1 16 -2 23 -7z"/>
<path d="M5378 7913 c-16 -10 -28 -23 -28 -29 0 -7 -7 -14 -15 -18 -8 -3 -15
-15 -15 -26 0 -11 -7 -23 -15 -26 -8 -4 -15 -16 -15 -29 0 -12 -7 -36 -15 -51
-8 -16 -15 -37 -15 -47 0 -9 -4 -25 -9 -35 -6 -9 -13 -34 -16 -54 -3 -21 -10
-38 -15 -38 -6 0 -10 -17 -10 -38 0 -21 -7 -47 -15 -58 -8 -10 -15 -35 -15
-54 0 -19 -7 -53 -15 -75 -8 -22 -14 -55 -15 -72 0 -18 -4 -33 -9 -33 -5 0
-13 -25 -16 -55 -4 -30 -11 -55 -16 -55 -5 0 -9 -19 -9 -42 -1 -24 -7 -54 -15
-68 -8 -14 -14 -44 -15 -66 0 -24 -6 -47 -15 -54 -9 -8 -15 -30 -15 -56 0 -24
-4 -44 -9 -44 -5 0 -12 -22 -16 -50 -4 -27 -11 -52 -16 -56 -5 -3 -9 -18 -9
-34 0 -16 -7 -35 -15 -44 -8 -8 -15 -26 -15 -39 0 -14 -7 -30 -15 -37 -8 -7
-15 -22 -15 -35 0 -23 -80 -112 -112 -124 -48 -18 -328 -292 -328 -321 0 -6
-7 -10 -15 -10 -8 0 -15 -7 -15 -15 0 -8 -4 -15 -9 -15 -5 0 -13 -9 -16 -20
-4 -11 -18 -33 -31 -47 -13 -15 -27 -37 -30 -50 -4 -13 -10 -23 -15 -23 -5 0
-9 -9 -9 -21 0 -11 -7 -27 -15 -35 -8 -9 -15 -28 -15 -43 0 -16 -7 -34 -15
-41 -22 -18 -21 -306 0 -334 8 -11 15 -37 15 -58 0 -21 7 -55 15 -75 8 -19 15
-48 15 -64 0 -15 4 -30 9 -33 5 -3 12 -26 15 -51 4 -25 11 -45 15 -45 5 0 12
-20 15 -45 4 -24 11 -47 17 -50 5 -4 9 -20 9 -36 0 -17 7 -37 15 -45 8 -9 15
-27 15 -40 0 -14 7 -32 15 -40 8 -9 15 -29 15 -45 0 -16 5 -29 10 -29 6 0 10
-8 10 -17 0 -10 7 -31 15 -47 8 -15 15 -39 15 -51 0 -13 7 -25 15 -29 8 -3 15
-16 15 -29 0 -13 7 -32 15 -43 8 -10 15 -29 15 -41 0 -13 5 -23 10 -23 6 0 10
-5 10 -11 0 -12 22 -66 46 -112 8 -16 14 -38 14 -49 0 -21 -22 -48 -39 -48 -5
0 -14 -8 -20 -17 -8 -14 -21 -18 -66 -16 -31 1 -68 9 -81 17 -13 9 -31 16 -40
16 -18 0 -108 27 -136 41 -10 5 -26 9 -36 9 -10 0 -27 7 -38 15 -10 8 -29 15
-40 15 -12 0 -27 7 -34 15 -7 8 -25 15 -41 15 -15 0 -30 4 -34 9 -3 5 -19 12
-35 16 -17 4 -30 11 -30 16 0 5 -9 9 -20 9 -11 0 -46 14 -77 30 -31 17 -64 30
-74 30 -9 0 -19 3 -21 8 -4 10 -126 72 -142 72 -8 0 -19 7 -26 15 -7 8 -21 15
-31 15 -11 0 -19 7 -19 15 0 9 -9 15 -22 15 -11 0 -36 11 -54 25 -18 14 -40
25 -48 25 -9 0 -16 6 -16 14 0 8 -11 17 -25 20 -14 4 -25 11 -25 16 0 6 -7 10
-15 10 -16 0 -27 8 -66 43 -10 9 -24 17 -29 17 -5 0 -10 3 -10 8 0 7 -30 25
-62 38 -10 3 -18 13 -18 20 0 8 -5 14 -11 14 -7 0 -22 11 -35 25 -13 14 -26
25 -29 25 -3 0 -43 39 -90 86 -58 60 -85 94 -85 110 0 13 6 24 13 24 14 0 47
70 47 99 0 11 5 23 10 26 15 9 12 84 -6 131 -9 23 -27 47 -40 54 -13 8 -24 17
-24 22 0 4 -5 8 -11 8 -17 0 -38 32 -39 57 -1 59 -89 100 -151 69 -40 -20 -49
-20 -85 -1 -16 8 -37 15 -47 15 -25 0 -107 -38 -107 -50 0 -6 -6 -10 -13 -10
-7 0 -24 -18 -37 -40 -14 -22 -28 -40 -32 -40 -5 0 -8 -13 -8 -30 0 -16 -4
-30 -9 -30 -5 0 -11 -18 -15 -40 -5 -34 -10 -40 -30 -40 -14 0 -26 -5 -28 -11
-2 -6 -26 -13 -53 -16 -28 -3 -59 -12 -70 -19 -11 -8 -34 -14 -52 -14 -17 0
-35 -4 -38 -10 -3 -5 -18 -10 -33 -10 -15 0 -40 -7 -56 -15 -15 -8 -40 -15
-55 -15 -15 0 -36 -7 -47 -15 -10 -8 -31 -15 -45 -15 -14 0 -34 -7 -45 -15
-10 -8 -29 -15 -42 -15 -12 0 -30 -4 -40 -9 -9 -5 -46 -19 -82 -32 -36 -12
-69 -26 -75 -31 -5 -4 -19 -8 -31 -8 -13 0 -29 -7 -38 -15 -8 -8 -24 -15 -35
-15 -12 0 -29 -4 -39 -9 -94 -47 -150 -71 -163 -71 -9 0 -22 -7 -29 -15 -7 -8
-20 -15 -30 -15 -10 0 -23 -7 -30 -15 -7 -8 -19 -15 -27 -15 -13 0 -89 -35
-133 -61 -8 -5 -22 -12 -30 -16 -8 -4 -21 -13 -28 -20 -7 -7 -20 -13 -28 -13
-8 0 -14 -4 -14 -9 0 -5 -14 -12 -30 -16 -17 -4 -30 -10 -30 -14 0 -3 -17 -15
-37 -26 -21 -11 -42 -25 -46 -32 -4 -7 -17 -13 -27 -13 -11 0 -20 -5 -20 -10
0 -6 -8 -14 -17 -17 -10 -4 -29 -17 -43 -30 -14 -13 -31 -23 -38 -23 -7 0 -15
-7 -18 -15 -4 -8 -10 -15 -14 -15 -9 0 -58 -40 -101 -82 -16 -16 -31 -28 -34
-28 -9 0 -45 -40 -45 -50 0 -5 -5 -10 -11 -10 -14 0 -99 -85 -99 -99 0 -6 -7
-11 -15 -11 -8 0 -15 -7 -15 -15 0 -8 -4 -15 -9 -15 -5 0 -12 -8 -15 -17 -4
-10 -20 -33 -36 -52 -17 -18 -30 -40 -30 -47 0 -8 -4 -14 -10 -14 -5 0 -10 -5
-10 -11 0 -6 -7 -17 -15 -25 -8 -9 -15 -24 -15 -35 0 -10 -7 -19 -15 -19 -9 0
-15 -9 -15 -25 0 -14 -4 -25 -10 -25 -5 0 -12 -16 -16 -35 -3 -19 -10 -38 -15
-41 -5 -3 -9 -18 -9 -33 0 -15 -7 -36 -15 -47 -8 -10 -15 -35 -15 -54 0 -19
-7 -48 -15 -64 -11 -21 -15 -64 -15 -170 0 -122 3 -145 19 -173 16 -25 25 -30
43 -26 19 5 87 51 108 73 7 7 42 29 60 37 8 3 19 12 23 20 4 7 17 13 27 13 11
0 20 3 20 8 0 8 12 15 86 50 27 13 61 30 76 38 14 8 36 14 47 14 12 0 21 5 21
10 0 6 9 10 21 10 12 0 35 6 52 14 38 17 182 40 252 40 66 0 225 -25 225 -35
0 -4 14 -11 32 -14 18 -4 39 -11 48 -16 8 -4 22 -10 30 -13 30 -12 109 -62
147 -93 53 -44 143 -134 143 -143 0 -4 9 -10 21 -13 23 -6 79 11 79 24 0 5 6
9 14 9 8 0 16 3 18 8 5 10 67 42 84 42 8 0 17 7 20 15 4 8 16 15 29 15 12 0
28 7 35 15 7 8 23 15 36 15 12 0 25 4 28 9 3 5 22 12 42 16 20 3 44 10 53 15
82 45 517 44 565 -1 6 -5 17 -9 25 -9 9 0 29 -7 45 -15 15 -8 36 -15 46 -15
10 0 23 -7 30 -15 7 -8 21 -15 31 -15 11 0 19 -4 19 -10 0 -5 11 -12 25 -16
14 -3 25 -10 25 -14 0 -4 10 -10 23 -14 13 -3 37 -18 53 -33 22 -21 38 -27 69
-25 23 0 44 8 51 17 6 8 16 15 23 15 6 0 11 4 11 10 0 5 11 12 25 16 14 3 25
10 25 14 0 4 11 11 25 14 14 4 25 11 25 16 0 6 9 10 19 10 11 0 21 4 23 8 2 5
39 25 83 46 44 20 88 41 97 46 10 6 24 10 32 10 7 0 19 7 26 15 7 8 23 15 36
15 12 0 26 5 29 10 3 6 15 10 27 10 11 0 32 6 46 14 42 21 127 46 158 46 16 1
40 7 54 15 14 8 45 14 70 15 25 0 67 7 94 15 62 19 271 21 282 3 4 -6 2 -14
-4 -16 -7 -2 -12 -14 -12 -27 0 -13 -4 -26 -9 -30 -5 -3 -12 -19 -16 -36 -4
-17 -13 -42 -21 -57 -8 -15 -14 -37 -14 -49 0 -13 -4 -23 -10 -23 -5 0 -10
-17 -10 -39 0 -21 -7 -56 -16 -77 -23 -55 -23 -458 0 -523 9 -24 16 -58 16
-77 0 -18 4 -35 9 -38 5 -4 12 -24 16 -46 4 -22 10 -40 15 -40 4 0 10 -18 14
-40 3 -22 11 -40 16 -40 6 0 10 -9 10 -21 0 -11 7 -27 15 -35 8 -9 15 -24 15
-34 0 -10 7 -20 15 -24 8 -3 15 -15 15 -26 0 -11 4 -20 9 -20 5 0 12 -8 15
-17 13 -35 37 -73 47 -73 5 0 9 -7 9 -15 0 -8 3 -15 8 -15 4 0 18 -17 32 -37
30 -44 78 -93 91 -93 5 0 9 -6 9 -14 0 -8 8 -17 18 -21 16 -6 16 -7 0 -19 -10
-7 -18 -22 -18 -32 0 -10 -7 -28 -15 -38 -8 -11 -15 -32 -15 -46 0 -14 -7 -35
-15 -46 -16 -21 -22 -229 -6 -238 4 -3 11 -18 14 -33 3 -16 16 -39 29 -53 13
-14 34 -42 48 -63 16 -24 44 -46 77 -62 53 -26 117 -33 128 -15 10 17 19 11
45 -30 13 -22 28 -40 32 -40 4 0 8 -7 8 -15 0 -8 6 -15 14 -15 7 0 19 -7 26
-15 9 -11 33 -15 86 -15 59 0 74 3 74 15 0 8 5 15 10 15 6 0 23 12 38 26 37
35 67 46 140 50 39 2 69 9 78 19 9 8 20 15 25 15 14 0 63 50 72 73 3 9 11 17
17 17 5 0 10 11 10 25 0 15 6 25 14 25 10 0 16 13 18 38 l3 37 53 3 c32 2 52
8 52 15 0 22 20 -17 20 -40 0 -13 5 -23 10 -23 6 0 10 -5 10 -11 0 -27 47
-107 85 -144 56 -55 175 -99 175 -65 0 6 5 10 11 10 14 0 39 -25 39 -39 0 -6
7 -11 15 -11 8 0 15 -5 15 -10 0 -17 33 -48 63 -59 16 -6 58 -11 94 -11 l66 0
64 67 c48 50 66 64 75 55 14 -14 88 -16 88 -3 0 5 12 12 27 16 15 3 37 17 50
31 12 13 27 24 33 24 5 0 10 7 10 15 0 8 5 15 10 15 6 0 10 6 10 14 0 8 7 16
15 20 8 3 15 16 15 30 0 13 5 26 11 28 5 2 13 24 16 48 3 25 9 50 13 55 18 24
21 107 5 172 -9 37 -18 76 -19 85 -6 28 37 48 102 48 32 0 62 4 68 9 5 6 52
13 104 17 52 4 100 11 106 15 6 5 59 12 118 16 59 3 109 10 112 15 3 4 38 8
78 8 41 0 93 7 116 15 23 8 63 15 89 15 25 0 55 7 65 15 11 8 36 15 57 15 20
0 53 7 72 15 20 8 48 15 62 15 14 0 25 5 25 10 0 6 16 10 35 10 22 0 38 6 41
15 4 8 17 15 30 15 32 0 163 62 164 78 0 6 11 12 24 12 13 0 29 7 36 15 7 8
21 15 31 15 11 0 19 4 19 9 0 5 12 12 27 16 15 3 30 10 33 13 8 11 71 42 85
42 7 0 15 7 19 15 3 8 17 15 31 15 16 0 25 6 25 15 0 8 4 15 10 15 15 0 160
92 160 101 0 5 5 9 11 9 6 0 24 13 40 29 16 16 29 34 29 40 0 6 7 11 15 11 8
0 15 7 15 15 0 8 7 15 15 15 9 0 15 9 15 23 0 13 5 28 12 35 16 16 14 101 -3
133 -20 35 -101 119 -116 119 -7 0 -13 5 -13 10 0 6 -9 10 -20 10 -11 0 -23 7
-26 15 -4 8 -14 15 -24 15 -11 0 -22 5 -25 10 -3 5 -1 10 4 10 6 0 11 6 11 14
0 8 7 16 15 20 8 3 15 11 15 19 0 23 -53 65 -90 70 -48 8 -152 32 -170 40 -21
9 -115 27 -182 36 -63 7 -84 19 -50 28 12 3 22 10 22 17 0 6 18 20 40 30 22
11 40 23 40 28 0 4 9 8 19 8 11 0 26 7 35 15 8 8 21 15 29 15 8 0 20 7 27 15
7 8 23 15 36 15 13 0 24 4 24 9 0 5 16 12 36 16 20 3 44 10 53 15 9 5 50 16
91 25 91 20 300 16 400 -8 97 -24 158 -42 166 -50 4 -4 17 -7 29 -7 13 0 28
-7 35 -15 7 -8 18 -15 25 -15 16 0 73 -30 93 -47 7 -7 20 -13 28 -13 8 0 14
-4 14 -10 0 -5 6 -10 14 -10 8 0 21 -6 29 -14 21 -21 97 -26 97 -6 0 12 88
100 100 100 6 0 10 7 10 15 0 8 7 15 15 15 8 0 15 3 15 8 0 4 18 18 40 32 22
14 40 28 40 32 0 5 8 8 19 8 10 0 24 7 31 15 7 8 19 15 26 15 8 0 22 4 32 10
47 25 96 40 189 55 95 15 109 15 220 -1 65 -10 120 -21 123 -25 3 -4 22 -10
43 -14 20 -4 40 -11 43 -16 3 -5 14 -9 26 -9 11 0 32 -6 46 -14 15 -8 47 -24
72 -35 66 -30 124 -64 133 -78 4 -7 17 -13 27 -13 10 0 23 -6 27 -13 10 -16
112 -91 136 -100 9 -3 24 -4 32 -1 29 12 14 504 -15 504 -4 0 -10 18 -14 40
-3 22 -11 40 -16 40 -6 0 -10 14 -10 30 0 17 -3 30 -8 30 -4 0 -18 24 -32 53
-13 28 -30 58 -36 64 -7 7 -18 26 -26 43 -7 16 -17 30 -23 30 -6 0 -16 13 -23
30 -8 16 -33 50 -58 75 -24 25 -44 48 -44 50 0 7 -39 45 -46 45 -10 0 -34 28
-34 39 0 6 -7 11 -15 11 -8 0 -15 7 -15 15 0 8 -5 15 -11 15 -6 0 -28 17 -49
38 -40 41 -66 59 -92 68 -10 4 -18 13 -18 20 0 8 -7 14 -15 14 -8 0 -15 4 -15
10 0 5 -11 12 -25 16 -14 3 -25 10 -25 15 0 5 -4 9 -10 9 -5 0 -19 8 -29 17
-39 35 -50 43 -66 43 -8 0 -15 4 -15 9 0 5 -10 13 -22 17 -12 3 -28 13 -36 20
-7 8 -20 14 -28 14 -8 0 -14 3 -14 8 0 4 -19 16 -43 27 -23 11 -46 25 -50 32
-4 7 -19 13 -32 13 -14 0 -25 4 -25 10 0 5 -11 12 -25 16 -14 3 -25 10 -25 15
0 5 -11 9 -24 9 -13 0 -29 7 -36 15 -7 8 -19 15 -28 15 -8 0 -23 6 -31 13 -9
7 -42 22 -73 32 -32 11 -58 22 -58 26 0 4 -13 10 -30 14 -16 4 -32 11 -35 16
-4 5 -15 9 -27 9 -11 0 -32 6 -46 14 -15 7 -52 22 -82 32 -30 10 -66 24 -80
31 -14 7 -33 13 -42 13 -9 0 -20 5 -23 10 -3 6 -19 10 -34 10 -15 0 -36 7 -47
15 -10 8 -32 15 -47 15 -16 0 -35 7 -43 15 -9 8 -31 15 -49 15 -19 0 -36 4
-40 9 -3 6 -26 13 -50 17 -25 3 -48 10 -51 15 -3 5 -20 9 -38 9 -18 0 -41 7
-52 15 -10 8 -34 15 -52 15 -19 0 -48 6 -65 14 -18 8 -40 16 -49 20 -12 4 -18
16 -18 38 0 18 -7 42 -15 52 -8 11 -15 27 -15 36 0 8 -11 27 -25 42 -14 15
-25 32 -25 38 0 5 -7 10 -15 10 -8 0 -15 4 -15 10 0 31 -158 62 -167 33 -5
-15 -53 -18 -53 -4 0 6 -20 13 -45 17 -67 10 -114 -24 -125 -91 -3 -16 -14
-34 -25 -40 -82 -41 -116 -119 -95 -213 15 -69 14 -67 45 -117 13 -22 24 -46
25 -53 0 -7 -39 -51 -87 -98 -117 -113 -118 -114 -128 -114 -4 0 -18 -11 -30
-24 -12 -13 -40 -35 -62 -49 -22 -14 -46 -32 -54 -39 -8 -8 -30 -23 -49 -34
-19 -10 -39 -25 -43 -31 -4 -7 -16 -13 -26 -13 -11 0 -21 -6 -24 -14 -3 -8
-24 -22 -46 -32 -23 -10 -41 -21 -41 -26 0 -4 -11 -8 -25 -8 -14 0 -25 -5 -25
-10 0 -6 -10 -15 -22 -20 -13 -6 -30 -14 -38 -19 -8 -5 -48 -24 -87 -43 -40
-18 -73 -36 -73 -40 0 -5 -11 -8 -24 -8 -13 0 -29 -7 -36 -15 -7 -8 -21 -15
-32 -15 -11 0 -26 -7 -34 -15 -9 -8 -24 -15 -34 -15 -11 0 -40 -11 -66 -25
-26 -14 -57 -25 -69 -25 -13 0 -28 -7 -35 -15 -7 -8 -22 -15 -34 -15 -11 0
-30 -7 -40 -15 -11 -8 -32 -15 -48 -15 -15 0 -28 -4 -28 -10 0 -5 -10 -10 -22
-10 -13 0 -36 -7 -52 -15 -15 -8 -39 -15 -52 -15 -14 0 -35 -6 -47 -14 -35
-22 -98 -27 -127 -11 -14 8 -32 17 -40 21 -48 25 -63 61 -35 84 8 7 15 20 15
30 0 10 7 23 15 30 8 7 15 20 15 30 0 15 17 59 41 102 5 10 9 26 9 37 0 10 7
24 15 31 8 7 15 23 15 35 0 12 7 28 15 35 8 7 15 23 15 35 0 13 7 36 15 51 8
16 15 36 15 45 0 9 3 19 6 22 11 11 43 110 44 133 0 11 7 29 15 40 8 10 15 30
15 44 0 14 7 36 15 50 8 14 14 44 15 68 0 23 4 42 9 42 6 0 13 32 17 70 4 39
11 73 15 76 12 7 12 354 0 354 -5 0 -11 22 -15 50 -4 27 -11 52 -16 55 -6 3
-10 17 -10 29 0 13 -7 29 -15 36 -8 7 -15 21 -15 31 0 11 -4 19 -10 19 -5 0
-19 20 -30 44 -11 24 -23 46 -28 48 -4 1 -18 20 -31 41 -12 20 -27 37 -32 37
-5 0 -9 7 -9 15 0 8 -7 15 -15 15 -8 0 -15 4 -15 10 0 9 -135 150 -144 150 -2
0 -23 18 -45 39 -23 22 -50 43 -61 46 -11 4 -20 11 -20 16 0 5 -7 9 -15 9 -8
0 -15 4 -15 9 0 5 -10 13 -22 17 -25 7 -58 38 -58 53 0 5 -6 16 -13 23 -16 16
-47 97 -47 123 0 11 -7 29 -15 39 -8 11 -15 32 -15 46 0 14 -7 35 -15 46 -8
10 -15 35 -15 55 0 20 -3 39 -7 43 -9 9 -31 101 -42 174 -4 28 -12 57 -19 64
-7 7 -12 29 -12 49 0 20 -7 53 -15 72 -8 20 -15 50 -15 67 0 17 -4 38 -9 48
-5 9 -14 40 -19 67 -22 107 -33 151 -42 167 -6 10 -10 32 -10 50 0 18 -7 42
-15 52 -8 11 -15 34 -15 52 0 17 -7 37 -15 44 -8 7 -15 21 -15 31 0 11 -4 27
-9 37 -5 9 -12 24 -16 32 -33 82 -87 114 -137 83z m-213 -1943 c3 -5 14 -10
23 -10 9 0 30 -7 46 -15 15 -8 35 -15 42 -15 8 0 14 -7 14 -15 0 -8 4 -15 9
-15 5 0 32 -22 60 -49 47 -45 53 -48 76 -38 14 7 25 15 25 20 0 11 88 97 99
97 5 0 22 7 37 15 16 8 37 15 46 15 9 0 20 5 23 10 3 6 30 10 60 10 30 0 57
-4 60 -10 3 -5 13 -10 21 -10 23 0 104 -39 104 -50 0 -6 4 -10 9 -10 12 0 71
-59 71 -70 0 -5 3 -10 8 -12 12 -5 42 -68 42 -89 0 -11 7 -22 15 -25 12 -5 15
-30 15 -139 0 -106 -3 -135 -15 -145 -8 -7 -15 -25 -15 -41 0 -16 -3 -29 -8
-29 -4 0 -16 -16 -27 -36 -24 -45 -49 -74 -64 -74 -6 0 -11 -6 -11 -14 0 -8
-11 -17 -25 -20 -14 -4 -25 -11 -25 -16 0 -6 -8 -10 -17 -10 -10 0 -27 -7 -37
-15 -27 -21 -175 -21 -202 0 -10 8 -26 15 -35 15 -9 0 -19 7 -23 15 -3 8 -13
15 -21 15 -9 0 -40 25 -69 55 -29 30 -59 55 -68 55 -9 0 -24 -12 -33 -27 -25
-38 -73 -83 -89 -83 -8 0 -16 -7 -20 -15 -3 -8 -13 -15 -23 -15 -10 0 -27 -7
-37 -15 -14 -10 -45 -15 -101 -15 -56 0 -87 5 -101 15 -10 8 -27 15 -37 15
-10 0 -20 7 -23 15 -4 8 -12 15 -20 15 -8 0 -14 3 -14 8 0 4 -13 16 -29 27
-17 11 -32 26 -35 35 -8 23 -29 54 -43 63 -7 4 -13 18 -13 30 0 13 -6 29 -12
35 -9 9 -13 54 -13 150 0 131 1 140 29 197 16 33 35 64 43 68 7 4 13 14 13 20
0 7 14 24 30 37 17 14 37 31 45 38 7 6 18 12 24 12 6 0 11 5 11 10 0 6 10 10
23 10 12 0 33 7 47 14 29 16 126 21 135 6z m-2575 -536 c0 -13 -4 -24 -10 -24
-5 0 -12 -16 -16 -35 -3 -19 -10 -38 -15 -41 -5 -3 -9 -32 -9 -65 0 -53 -2
-59 -21 -59 -73 0 -78 159 -8 231 34 35 79 31 79 -7z m5779 -11 c26 -40 31
-56 31 -110 0 -66 -18 -103 -51 -103 -13 0 -18 14 -23 70 -4 38 -11 72 -17 75
-5 4 -9 16 -9 28 0 13 -7 33 -16 45 -12 18 -13 23 -2 26 7 3 20 7 28 9 8 3 18
6 22 6 3 1 20 -20 37 -46z m-5617 2 c27 -14 58 -25 69 -25 14 0 19 -7 19 -29
0 -17 -4 -33 -10 -36 -5 -3 -10 -15 -10 -25 0 -10 -7 -25 -15 -34 -8 -8 -15
-18 -15 -23 -1 -12 -58 -73 -69 -73 -5 0 -11 -7 -15 -15 -8 -23 -73 -20 -86 4
-20 38 -1 174 28 203 7 7 12 16 12 21 0 8 32 56 39 57 1 0 25 -11 53 -25z
m5436 6 c12 -11 22 -26 22 -35 0 -9 4 -16 8 -16 13 0 42 -107 42 -153 -1 -49
-18 -77 -50 -77 -28 0 -80 30 -80 47 0 7 -7 13 -15 13 -8 0 -15 7 -15 15 0 8
-4 15 -10 15 -5 0 -12 11 -16 25 -3 14 -10 25 -15 25 -5 0 -9 11 -9 24 0 14
-4 28 -10 31 -5 3 -10 17 -10 31 0 18 5 24 23 24 12 0 40 11 62 24 49 30 45
29 73 7z m-5242 -152 c11 -18 7 -70 -7 -99 -23 -45 -100 -110 -131 -110 -17 0
-31 7 -35 16 -7 19 16 64 33 64 6 0 14 8 18 18 8 24 29 56 44 65 6 4 12 14 12
22 0 27 52 45 66 24z m5038 -14 c4 -14 11 -25 16 -25 6 0 10 -6 10 -14 0 -8
21 -37 46 -65 52 -58 55 -84 8 -89 -24 -2 -39 6 -82 47 -30 28 -52 59 -52 70
0 12 -4 21 -10 21 -5 0 -10 13 -10 30 0 49 63 70 74 25z m-1028 -1540 c27 -8
68 -15 92 -15 24 0 53 -5 65 -12 12 -6 42 -15 67 -19 69 -12 140 -33 140 -41
0 -4 18 -11 40 -14 22 -4 40 -10 40 -15 0 -5 10 -9 23 -9 13 0 32 -7 43 -15
10 -8 25 -15 32 -15 14 0 144 -61 152 -71 3 -3 17 -9 33 -13 15 -3 27 -11 27
-16 0 -6 9 -10 20 -10 11 0 23 -7 26 -15 4 -8 15 -15 25 -15 10 0 19 -4 19 -9
0 -5 10 -13 23 -17 12 -4 24 -9 27 -13 7 -9 42 -30 68 -41 25 -11 21 -30 -6
-30 -38 0 -85 -101 -52 -112 6 -2 13 -21 16 -43 18 -117 75 -163 190 -150 60
6 68 5 90 -16 13 -12 24 -30 24 -38 0 -9 7 -25 15 -35 19 -26 19 -70 0 -86 -8
-7 -15 -18 -15 -24 0 -15 -56 -76 -69 -76 -6 0 -11 -6 -11 -12 0 -7 -10 -18
-23 -24 -49 -23 -112 -59 -115 -66 -2 -5 -13 -8 -25 -8 -12 0 -31 -7 -41 -15
-11 -8 -31 -15 -44 -15 -13 0 -30 -7 -38 -15 -9 -8 -32 -15 -53 -15 -21 0 -41
-3 -45 -7 -4 -5 -44 -14 -89 -22 -149 -26 -534 -14 -612 19 -11 5 -47 11 -80
14 -33 3 -61 10 -63 16 -2 5 -25 10 -52 10 -72 0 -80 6 -80 54 0 23 4 46 10
52 12 12 33 105 60 269 18 102 -5 412 -31 440 -5 5 -9 20 -9 35 0 14 -7 38
-15 54 -8 15 -15 40 -15 55 0 14 -7 35 -15 45 -8 11 -15 27 -15 37 0 9 -7 22
-15 29 -8 7 -15 25 -15 41 l0 29 113 0 c72 0 132 -5 163 -15z m-2363 -1700
c19 -19 38 -35 44 -35 5 0 15 -11 23 -24 10 -19 10 -34 1 -70 -6 -25 -11 -74
-11 -110 0 -68 -9 -86 -30 -61 -14 17 -80 21 -80 5 0 -23 -16 -7 -33 32 -30
68 -9 252 33 285 8 7 16 13 17 13 1 0 17 -16 36 -35z m1868 -111 c12 -80 -6
-223 -25 -204 -13 13 -81 13 -106 0 -21 -11 -25 4 -36 135 -4 44 -11 86 -16
92 -7 9 -3 16 16 24 14 7 26 16 26 21 0 4 13 8 28 8 16 0 37 6 48 14 31 23 53
-7 65 -90z m-256 -64 c8 -78 -2 -210 -16 -211 -5 0 -71 -1 -146 -1 -136 -1
-138 0 -150 23 -7 13 -13 55 -13 92 0 56 3 69 18 73 9 3 25 10 34 15 10 5 28
9 40 9 13 1 34 7 48 15 14 8 35 14 46 15 12 0 27 6 34 14 10 13 33 20 81 25
14 1 18 -13 24 -69z m-1411 45 c3 -8 16 -15 28 -15 13 -1 34 -7 48 -15 14 -8
37 -14 52 -15 15 0 37 -4 50 -9 13 -6 40 -12 61 -16 l37 -6 -1 -72 c-1 -82
-11 -129 -23 -109 -9 15 -242 17 -251 2 -10 -17 -25 -11 -25 9 0 10 -7 32 -15
47 -21 41 -21 177 1 198 19 20 30 20 38 1z m491 -121 c35 -6 40 -14 26 -47 -6
-18 -8 -18 -21 -2 -10 12 -26 16 -59 13 -44 -3 -46 -2 -49 26 -4 31 -14 30
103 10z m495 -21 l0 -38 -69 -1 c-61 0 -70 2 -75 19 -7 29 1 37 37 38 18 0 41
4 52 9 43 18 55 12 55 -27z"/>
<path d="M5224 5655 c-52 -23 -74 -60 -74 -124 0 -50 4 -60 35 -93 33 -37 37
-38 99 -38 52 0 66 3 66 15 0 8 7 15 15 15 8 0 15 7 15 15 0 8 4 15 10 15 5 0
12 11 16 25 7 30 24 33 24 5 0 -11 7 -23 15 -26 8 -4 15 -12 15 -20 0 -8 6
-14 14 -14 8 0 16 -7 20 -15 4 -11 21 -15 62 -15 68 0 118 31 129 80 4 16 10
32 15 35 11 7 -20 94 -40 115 -28 29 -93 44 -133 31 -40 -14 -85 -54 -99 -91
l-11 -25 -7 26 c-10 35 -50 79 -71 79 -10 0 -21 5 -24 10 -9 14 -54 11 -91 -5z
m36 -85 c0 -13 -7 -20 -20 -20 -11 0 -20 2 -20 4 0 2 -3 11 -6 20 -5 12 0 16
20 16 19 0 26 -5 26 -20z m280 0 c0 -23 -25 -27 -33 -6 -7 16 1 26 20 26 7 0
13 -9 13 -20z"/>
<path d="M1260 7749 c-45 -13 -80 -52 -80 -90 0 -22 13 -43 46 -79 l47 -50
-36 0 c-120 0 -174 -87 -105 -166 l32 -37 -31 7 c-36 8 -40 4 -58 -65 -13 -48
-13 -50 8 -58 43 -16 1230 -212 1238 -204 13 14 29 87 21 95 -4 4 -170 39
-367 78 -553 107 -601 123 -549 174 8 9 21 16 29 16 21 0 174 -33 554 -119
194 -45 357 -79 361 -76 9 5 34 94 29 99 -2 3 -130 36 -284 75 -531 134 -625
164 -625 199 0 11 6 25 14 31 18 15 68 3 548 -135 367 -106 369 -106 388 -87
10 11 20 35 22 53 l3 32 -410 129 c-225 71 -453 141 -505 155 -107 28 -237 39
-290 23z"/>
<path d="M9720 7599 l-104 -30 -16 21 -17 22 -129 -39 c-118 -35 -129 -41
-132 -63 -3 -24 -16 -29 -250 -94 -304 -85 -480 -138 -556 -167 -66 -24 -136
-81 -136 -111 0 -33 48 -68 94 -69 l41 -1 -32 -11 c-44 -17 -45 -19 -32 -72
l12 -47 46 7 c25 3 78 12 116 20 39 7 108 21 155 29 47 9 119 23 160 32 41 8
98 19 125 24 28 5 87 16 133 25 112 20 245 20 266 -1 19 -19 14 -29 -22 -48
-44 -22 -98 -32 -537 -101 -231 -36 -421 -68 -423 -70 -9 -9 10 -97 22 -101 7
-3 51 0 97 6 46 6 136 18 199 26 63 8 151 19 195 24 79 9 245 31 380 50 79 11
200 38 230 50 11 5 35 12 53 15 17 4 32 11 32 16 0 5 4 9 9 9 5 0 23 12 40 27
41 36 44 96 6 137 -14 15 -25 33 -25 40 0 14 87 46 125 46 12 0 35 4 51 10 16
5 56 14 89 19 125 19 187 34 192 46 5 14 -26 133 -36 139 -4 3 -36 -2 -71 -11
-36 -8 -186 -41 -335 -73 -307 -67 -997 -218 -1035 -226 -25 -6 -25 -6 3 16
16 13 26 28 23 36 -6 15 55 47 124 64 25 6 59 15 75 20 17 5 48 12 70 16 22 3
45 10 50 13 6 4 46 15 90 25 44 10 101 24 127 32 71 21 107 19 117 -9 9 -23
12 -24 68 -14 32 5 92 17 133 27 68 16 76 21 95 54 22 39 47 60 85 69 14 4 52
13 85 21 138 33 220 62 223 77 2 13 -23 23 -116 48 -65 17 -120 31 -123 30 -2
0 -51 -14 -109 -30z"/>
<path d="M1051 7157 c-5 -13 -12 -44 -16 -70 l-7 -46 43 -12 c24 -6 170 -39
323 -74 l279 -62 -108 -6 c-59 -4 -208 -7 -331 -7 -131 0 -225 -4 -229 -10 -3
-5 -8 -39 -12 -75 l-6 -65 59 0 c32 1 120 5 194 10 74 5 331 15 571 21 396 10
443 10 520 -5 139 -28 151 -33 144 -65 l-6 -28 92 -6 c198 -15 219 -10 219 49
0 65 -60 87 -475 175 -365 76 -672 149 -986 233 -136 36 -249 66 -253 66 -4 0
-11 -11 -15 -23z"/>
<path d="M9305 6814 c-401 -29 -752 -114 -809 -196 -25 -36 -20 -83 10 -107
39 -30 136 -58 254 -71 122 -15 138 -9 162 56 15 42 15 45 -2 54 -10 6 -39 10
-64 10 -25 0 -48 5 -51 10 -8 13 14 35 45 45 14 4 30 11 35 16 6 4 40 11 76
15 l66 6 6 -62 c4 -35 7 -83 7 -107 0 -31 5 -45 16 -50 9 -3 94 -1 188 5 391
27 576 92 576 201 0 79 -63 130 -189 156 -71 15 -245 25 -326 19z m198 -155
c15 -7 27 -16 27 -20 0 -17 -49 -40 -116 -54 -95 -20 -134 -20 -134 2 0 30 23
82 39 87 28 9 155 -2 184 -15z"/>
<path d="M1178 6680 c-127 -22 -200 -65 -219 -130 -25 -84 16 -151 119 -191
47 -18 84 -23 208 -27 l152 -4 6 -54 c3 -30 9 -79 12 -109 l6 -55 47 0 c83 0
296 23 310 34 13 10 11 63 -6 151 l-8 40 -105 5 -105 5 58 29 c31 16 85 56
120 89 81 77 108 90 169 85 57 -6 88 -29 69 -51 -14 -18 -86 -37 -136 -37 -48
0 -53 -20 -19 -75 28 -44 31 -45 79 -45 82 0 294 51 303 73 2 4 9 7 16 7 26 0
48 42 43 83 -10 76 -77 118 -243 152 -106 22 -293 30 -377 17 -99 -16 -152
-45 -235 -133 -76 -80 -104 -94 -162 -82 -21 4 -30 11 -30 25 0 33 56 78 99
78 33 0 33 15 -1 74 -32 56 -33 56 -78 55 -25 -1 -66 -5 -92 -9z"/>
<path d="M8960 6390 c-176 -14 -342 -50 -421 -91 -73 -37 -75 -95 -6 -132 153
-81 398 -126 722 -134 248 -6 359 7 447 55 63 33 79 52 85 101 5 39 3 44 -35
80 -81 77 -265 121 -527 126 -93 2 -213 0 -265 -5z m315 -100 c163 -15 245
-45 245 -90 0 -46 -110 -75 -285 -74 -207 2 -373 26 -454 68 -131 68 165 126
494 96z"/>
<path d="M2055 6035 c-82 -12 -206 -30 -275 -39 -137 -18 -292 -40 -440 -61
-52 -8 -151 -22 -220 -31 -69 -9 -156 -21 -195 -28 l-70 -12 -5 -60 c-3 -32
-10 -67 -15 -76 -19 -31 -145 -43 -145 -13 0 7 -5 15 -12 17 -9 3 -12 44 -12
146 l0 142 -46 0 c-73 0 -74 -3 -55 -116 9 -54 22 -126 30 -159 7 -33 21 -95
30 -137 20 -89 18 -88 119 -64 34 8 85 20 114 26 30 7 56 18 59 26 2 7 0 35
-7 61 -26 107 -26 103 13 103 20 0 57 4 84 10 26 5 93 16 148 25 55 9 138 22
185 30 47 8 101 16 120 19 19 2 80 12 135 21 218 36 282 46 340 54 33 5 85 13
115 19 30 6 99 19 153 28 102 19 104 21 91 72 -8 28 -35 28 -239 -3z"/>
<path d="M768 6033 c-16 -2 -28 -9 -28 -15 0 -12 101 -111 107 -104 2 2 1 31
-3 65 -7 66 -5 65 -76 54z"/>
<path d="M8477 6015 c-4 -9 -7 -27 -7 -39 0 -20 8 -24 98 -39 53 -9 122 -19
152 -22 102 -9 373 -48 530 -74 74 -13 134 -33 155 -53 20 -19 20 -19 -7 -43
-32 -28 -23 -39 36 -48 22 -4 44 -11 50 -18 13 -13 -72 -9 -479 22 -429 33
-610 54 -695 83 -80 28 -101 45 -93 76 6 22 4 23 -153 45 -61 9 -117 13 -126
10 -8 -3 -21 -17 -28 -31 -12 -21 -11 -28 6 -52 31 -41 103 -75 294 -137 450
-146 961 -326 1214 -429 50 -20 96 -36 103 -36 25 0 50 37 56 82 8 55 41 38
-307 157 -169 57 -251 90 -238 93 12 3 129 -5 261 -17 351 -34 340 -34 365 -2
18 22 21 36 16 74 -4 40 -2 51 18 70 21 21 22 24 7 47 -15 23 -81 57 -138 71
-38 10 -49 30 -11 22 16 -4 56 -10 90 -13 58 -6 61 -6 67 17 16 58 11 66 -45
73 -95 11 -118 8 -118 -13 0 -11 5 -23 10 -26 16 -10 3 -22 -25 -22 -15 0 -25
5 -25 13 0 8 -4 14 -10 14 -5 0 -10 5 -10 11 0 37 -47 48 -390 83 -85 9 -193
21 -240 26 -47 6 -130 14 -185 20 -55 5 -121 12 -146 16 -38 5 -47 3 -52 -11z"/>
<path d="M1295 5598 c-33 -6 -81 -16 -107 -24 -26 -8 -56 -14 -67 -14 -29 0
-89 -38 -96 -61 -4 -10 -11 -19 -16 -19 -10 0 -13 -83 -3 -93 4 -4 23 2 43 12
124 64 190 81 308 81 71 0 104 -4 110 -12 4 -7 18 -18 29 -25 20 -11 22 -9 28
21 8 42 -7 82 -44 118 -33 31 -68 34 -185 16z"/>
<path d="M2375 5600 c-11 -4 -45 -15 -75 -24 -30 -8 -91 -26 -135 -40 -44 -13
-107 -31 -140 -41 -33 -9 -78 -23 -100 -30 -114 -36 -122 -37 -144 -26 -17 10
-26 9 -43 -4 -13 -8 -31 -15 -40 -15 -10 0 -26 -4 -36 -9 -9 -5 -39 -15 -65
-22 -27 -7 -56 -19 -64 -28 -17 -17 -65 -37 -123 -51 -52 -13 -121 -35 -153
-48 -16 -7 -37 -12 -48 -12 -10 0 -19 -4 -19 -10 0 -5 -11 -10 -25 -10 -14 0
-42 -7 -62 -15 -19 -8 -45 -15 -57 -15 -12 0 -26 -4 -31 -9 -14 -11 -109 -41
-134 -41 -12 0 -21 5 -21 10 0 6 -6 10 -13 10 -7 0 -18 9 -24 19 -17 27 -53
131 -53 153 0 28 -38 23 -46 -7 -7 -29 29 -149 66 -217 6 -10 10 -25 10 -35 0
-9 9 -27 21 -39 18 -19 25 -20 62 -11 23 5 46 14 52 18 5 5 21 9 35 9 14 0 35
7 46 15 10 8 33 15 51 15 17 0 34 4 37 9 4 5 24 12 46 16 22 4 42 10 45 15 3
5 23 11 45 15 22 4 42 11 46 16 3 5 17 9 32 9 15 0 36 7 46 15 11 8 31 15 45
15 14 0 35 7 45 15 11 8 28 15 39 15 20 0 190 55 219 71 10 5 28 9 40 9 13 1
34 7 48 15 14 8 37 14 52 15 15 0 29 4 32 9 3 5 23 12 43 16 21 4 42 10 48 13
17 11 109 41 126 42 9 0 30 7 45 15 16 8 38 15 49 15 11 0 29 7 39 15 11 8 29
15 40 15 10 0 52 12 93 27 77 29 86 41 57 81 -16 24 -19 25 -49 12z"/>
<path d="M8083 2273 c26 -2 67 -2 90 0 23 2 2 3 -48 3 -49 0 -68 -1 -42 -3z"/>
<path d="M8540 2250 c0 -5 20 -10 45 -10 25 0 45 5 45 10 0 6 -20 10 -45 10
-25 0 -45 -4 -45 -10z"/>
<path d="M8850 2220 c0 -5 11 -10 25 -10 14 0 25 5 25 10 0 6 -11 10 -25 10
-14 0 -25 -4 -25 -10z"/>
<path d="M9113 2193 c9 -2 23 -2 30 0 6 3 -1 5 -18 5 -16 0 -22 -2 -12 -5z"/>
<path d="M9303 2163 c9 -2 25 -2 35 0 9 3 1 5 -18 5 -19 0 -27 -2 -17 -5z"/>
<path d="M9498 2133 c7 -3 16 -2 19 1 4 3 -2 6 -13 5 -11 0 -14 -3 -6 -6z"/>
<path d="M9630 2110 c0 -5 11 -10 25 -10 14 0 25 5 25 10 0 6 -11 10 -25 10
-14 0 -25 -4 -25 -10z"/>
<path d="M9888 2053 c7 -3 16 -2 19 1 4 3 -2 6 -13 5 -11 0 -14 -3 -6 -6z"/>
<path d="M10070 2000 c0 -5 5 -10 10 -10 6 0 10 5 10 10 0 6 -4 10 -10 10 -5
0 -10 -4 -10 -10z"/>
<path d="M10320 1860 c0 -5 5 -10 10 -10 6 0 10 5 10 10 0 6 -4 10 -10 10 -5
0 -10 -4 -10 -10z"/>
<path d="M10108 1593 c7 -3 16 -2 19 1 4 3 -2 6 -13 5 -11 0 -14 -3 -6 -6z"/>
<path d="M9938 1533 c7 -3 16 -2 19 1 4 3 -2 6 -13 5 -11 0 -14 -3 -6 -6z"/>
<path d="M9820 1510 c0 -5 7 -10 15 -10 8 0 15 5 15 10 0 6 -7 10 -15 10 -8 0
-15 -4 -15 -10z"/>
<path d="M9718 1483 c7 -3 16 -2 19 1 4 3 -2 6 -13 5 -11 0 -14 -3 -6 -6z"/>
<path d="M9578 1453 c7 -3 16 -2 19 1 4 3 -2 6 -13 5 -11 0 -14 -3 -6 -6z"/>
<path d="M5253 1423 c9 -2 23 -2 30 0 6 3 -1 5 -18 5 -16 0 -22 -2 -12 -5z"/>
<path d="M9423 1423 c9 -2 23 -2 30 0 6 3 -1 5 -18 5 -16 0 -22 -2 -12 -5z"/>
<path d="M5410 1400 c0 -5 11 -10 25 -10 14 0 25 5 25 10 0 6 -11 10 -25 10
-14 0 -25 -4 -25 -10z"/>
<path d="M9240 1400 c0 -5 11 -10 25 -10 14 0 25 5 25 10 0 6 -11 10 -25 10
-14 0 -25 -4 -25 -10z"/>
<path d="M5605 1370 c3 -5 22 -10 41 -10 19 0 34 5 34 10 0 6 -18 10 -41 10
-24 0 -38 -4 -34 -10z"/>
<path d="M9020 1370 c0 -5 15 -10 34 -10 19 0 38 5 41 10 4 6 -10 10 -34 10
-23 0 -41 -4 -41 -10z"/>
<path d="M5858 1343 c7 -3 16 -2 19 1 4 3 -2 6 -13 5 -11 0 -14 -3 -6 -6z"/>
<path d="M8768 1343 c18 -2 45 -2 60 0 15 2 0 4 -33 4 -33 0 -45 -2 -27 -4z"/>
<path d="M6213 1313 c20 -2 54 -2 75 0 20 2 3 4 -38 4 -41 0 -58 -2 -37 -4z"/>
<path d="M8418 1313 c23 -2 61 -2 85 0 23 2 4 4 -43 4 -47 0 -66 -2 -42 -4z"/>
</g>
</svg>
